<?xml version="1.0" encoding="UTF-8"?>
<svg version="1.1" xmlns="http://www.w3.org/2000/svg" width="44" height="43">
<path d="M0 0 C0.66 0 1.32 0 2 0 C2.495 1.98 2.495 1.98 3 4 C1.94512267 4.96671756 0.88066719 5.92298745 -0.1875 6.875 C-0.77917969 7.40867187 -1.37085938 7.94234375 -1.98046875 8.4921875 C-5.95157881 11.45707818 -9.47362374 12.26474232 -14.375 12.1875 C-15.33664063 12.17460937 -16.29828125 12.16171875 -17.2890625 12.1484375 C-20 12 -20 12 -23.75 11.3125 C-30.10845048 10.70111053 -35.01734161 14.47568065 -40 18 C-40.8125 16.3125 -40.8125 16.3125 -41 14 C-37.65902725 9.71937866 -34.18229631 7.52920219 -29 6 C-25.62836026 6.06150587 -22.33724611 6.53862957 -19 7 C-12.07775821 7.86091747 -8.3938018 6.5548232 -2.75 2.41015625 C-1.08133295 1.11697417 -1.08133295 1.11697417 0 0 Z " fill="#201A20" transform="translate(41,12)"/>
<path d="M0 0 C0.33 0 0.66 0 1 0 C1.5 2.6875 1.5 2.6875 1 6 C-3.34080967 9.82476936 -8.32112178 12.14580243 -14.125 12.125 C-14.92035156 12.12242188 -15.71570313 12.11984375 -16.53515625 12.1171875 C-18.93693383 12.00299839 -21.19455826 11.65218075 -23.5625 11.25 C-28.44776641 10.6232435 -32.04910781 12.14769773 -36 15 C-36.33 15.66 -36.66 16.32 -37 17 C-37.66 17 -38.32 17 -39 17 C-39.33 15.68 -39.66 14.36 -40 13 C-31.54598553 5.69880568 -31.54598553 5.69880568 -25.4375 5.8125 C-24.67308594 5.81894531 -23.90867187 5.82539063 -23.12109375 5.83203125 C-21 6 -21 6 -18 7 C-12.02082562 7.58619357 -7.9389642 6.21032673 -3 3 C-1.98943131 2.01068159 -0.9868534 1.01297599 0 0 Z " fill="#201A20" transform="translate(43,19)"/>
<path d="M0 0 C0.495 1.485 0.495 1.485 1 3 C-4.26753987 7.95585112 -8.22359605 10.80797946 -15.6875 11.1875 C-19 11 -19 11 -22 10 C-28.5094095 9.45754921 -31.58186867 10.38791245 -37 14 C-37.99 14.66 -38.98 15.32 -40 16 C-40.375 13.25 -40.375 13.25 -40 10 C-35.6914972 6.45745326 -32.03423691 4.85655254 -26.5 4.875 C-25.7265625 4.87242188 -24.953125 4.86984375 -24.15625 4.8671875 C-22 5 -22 5 -19 6 C-12.6535479 6.47897752 -8.80317621 5.10238216 -3.75 1.3125 C-2 0 -2 0 0 0 Z " fill="#201A20" transform="translate(40,7)"/>
<path d="M0 0 C0.721875 0.226875 1.44375 0.45375 2.1875 0.6875 C2.1875 1.3475 2.1875 2.0075 2.1875 2.6875 C-5.95813452 8.31904979 -12.61683064 8.50440876 -22.1875 7.0625 C-25.94222436 6.67408024 -27.47214689 7.16048143 -30.8125 8.6875 C-31.8025 8.3575 -32.7925 8.0275 -33.8125 7.6875 C-32.16355279 4.89145907 -30.90339732 2.98974862 -27.68359375 2.09765625 C-23.7346439 1.62274136 -20.65562399 1.67971406 -16.8125 2.6875 C-10.4271715 3.28148405 -5.43903302 -0.604337 0 0 Z " fill="#201A20" transform="translate(34.8125,3.3125)"/>
<path d="M0 0 C-1.24976756 3.65316671 -1.67098753 4.78065836 -5 7 C-7.70703125 7.23046875 -7.70703125 7.23046875 -10.8125 7.1875 C-12.42318359 7.16816406 -12.42318359 7.16816406 -14.06640625 7.1484375 C-17 7 -17 7 -20.25 6.3125 C-23.76475827 5.91309565 -25.97592471 6.90459805 -29.16796875 8.30859375 C-31 9 -31 9 -34 9 C-34 7.68 -34 6.36 -34 5 C-28.29954612 1.19969741 -22.68237502 1.56619941 -16 2 C-14.39125 2.3403125 -14.39125 2.3403125 -12.75 2.6875 C-9.21463892 3.08924558 -6.95449616 2.08304776 -3.734375 0.69140625 C-2 0 -2 0 0 0 Z " fill="#201A20" transform="translate(42,30)"/>
<path d="M0 0 C-1.03125 1.484375 -1.03125 1.484375 -3 3 C-5.5924762 3.24523423 -7.91866061 3.32866939 -10.5 3.25 C-11.17675781 3.24484375 -11.85351562 3.2396875 -12.55078125 3.234375 C-15.61957737 3.18595218 -18.07083192 2.97638936 -21 2 C-21 1.34 -21 0.68 -21 0 C-14.14778546 -3.53662686 -7.02063536 -2.39000353 0 0 Z " fill="#201920" transform="translate(33,40)"/>
<path d="M0 0 C0.74958984 0.00902344 1.49917969 0.01804688 2.27148438 0.02734375 C4.11862654 0.05087422 5.96560412 0.08674439 7.8125 0.125 C7.8125 1.115 7.8125 2.105 7.8125 3.125 C2.00767788 5.27026035 -3.11245087 5.50215922 -9.1875 4.125 C-9.8475 3.465 -10.5075 2.805 -11.1875 2.125 C-7.39586973 -0.40275351 -4.37875969 -0.09943035 0 0 Z " fill="#201A20" transform="translate(22.1875,-0.125)"/>
</svg>
